<svg width="60" height="60" viewBox="0 0 60 60" fill="none" xmlns="http://www.w3.org/2000/svg">
<path d="M11.0662 51.0019L6.85498 3.75H53.145L48.9281 50.9944L29.9719 56.25L11.0662 51.0019Z" fill="#1572B6"/>
<path d="M30 52.2336L45.3187 47.9868L48.9225 7.61426H30V52.2336Z" fill="#33A9DC"/>
<path d="M30 24.7329H37.6688L38.1975 18.7986H30V13.0029H44.5312L44.3925 14.5573L42.9694 30.5286H30V24.7329Z" fill="white"/>
<path d="M30.0356 39.7839L30.0093 39.7914L23.5556 38.0477L23.1431 33.4258H17.325L18.1368 42.5252L30.0075 45.8214L30.0356 45.8139V39.7839Z" fill="#EBEBEB"/>
<path d="M37.1756 30.2832L36.4781 38.0438L30.015 39.7876V45.8176L41.895 42.5251L41.9831 41.5463L42.99 30.2832H37.1756Z" fill="white"/>
<path d="M30.0206 13.0029V18.7986H16.0218L15.9056 17.4954L15.6412 14.5573L15.5024 13.0029H30.0206Z" fill="#EBEBEB"/>
<path d="M30 24.7329V30.5285H23.6269L23.5106 29.2254L23.2481 26.2873L23.1094 24.7329H30Z" fill="#EBEBEB"/>
</svg>
