<svg width="60" height="60" viewBox="0 0 60 60" fill="none" xmlns="http://www.w3.org/2000/svg">
<path d="M0 0H60V60H0V0Z" fill="#F7DF1E"/>
<path d="M15.7762 50.1404L20.3676 47.3616C21.2536 48.9321 22.0594 50.2611 23.9923 50.2611C25.845 50.2611 27.0133 49.5364 27.0133 46.7173V27.5459H32.6517V46.797C32.6517 52.6369 29.2284 55.2952 24.2339 55.2952C19.7233 55.2952 17.1051 52.9592 15.776 50.1399" fill="black"/>
<path d="M35.7143 49.5359L40.3053 46.8778C41.514 48.8515 43.0847 50.3013 45.8635 50.3013C48.2 50.3013 49.6897 49.1332 49.6897 47.5221C49.6897 45.589 48.1592 44.9042 45.5815 43.7768L44.1722 43.1721C40.1042 41.4408 37.4058 39.2658 37.4058 34.6744C37.4058 30.4453 40.6278 27.2231 45.6624 27.2231C49.2469 27.2231 51.8246 28.4719 53.6771 31.7342L49.2868 34.5537C48.32 32.8219 47.2732 32.1373 45.6622 32.1373C44.0107 32.1373 42.9636 33.1845 42.9636 34.5537C42.9636 36.2452 44.0108 36.9303 46.4272 37.9774L47.8367 38.5814C52.6297 40.6357 55.328 42.7299 55.328 47.4417C55.328 52.5169 51.3408 55.2956 45.9842 55.2956C40.7485 55.2956 37.3653 52.7986 35.7141 49.5361" fill="black"/>
</svg>
