<svg width="60" height="60" viewBox="0 0 60 60" fill="none" xmlns="http://www.w3.org/2000/svg">
<path d="M29.7459 0.0170898C14.5509 0.0170898 15.4996 6.63238 15.4996 6.63238L15.5165 13.486H30.0168V15.5437H9.75722C9.75722 15.5437 0.0339355 14.4366 0.0339355 29.8284C0.0339355 45.2206 8.52065 44.6747 8.52065 44.6747H13.5855V37.5321C13.5855 37.5321 13.3125 29.0121 21.9367 29.0121H36.3185C36.3185 29.0121 44.3985 29.1432 44.3985 21.1724V7.99309C44.3985 7.99309 45.6257 0.0170898 29.7459 0.0170898ZM21.7504 4.62603C22.0931 4.62572 22.4324 4.69325 22.749 4.82475C23.0657 4.95624 23.3534 5.14913 23.5957 5.39238C23.838 5.63562 24.0301 5.92444 24.1611 6.24231C24.2921 6.56018 24.3593 6.90086 24.359 7.24485C24.3593 7.58885 24.2921 7.92953 24.1611 8.2474C24.0301 8.56527 23.838 8.85409 23.5957 9.09733C23.3534 9.34058 23.0657 9.53346 22.749 9.66496C22.4324 9.79646 22.0931 9.86399 21.7504 9.86368C21.4078 9.86399 21.0684 9.79646 20.7518 9.66496C20.4352 9.53346 20.1475 9.34058 19.9052 9.09733C19.6629 8.85409 19.4707 8.56527 19.3398 8.2474C19.2088 7.92953 19.1415 7.58885 19.1418 7.24485C19.1415 6.90086 19.2088 6.56018 19.3398 6.24231C19.4707 5.92444 19.6629 5.63562 19.9052 5.39238C20.1475 5.14913 20.4352 4.95624 20.7518 4.82475C21.0684 4.69325 21.4078 4.62572 21.7504 4.62603Z" fill="url(#paint0_linear)"/>
<path d="M30.1774 59.7943C45.3724 59.7943 44.4237 53.179 44.4237 53.179L44.4068 46.3256H29.9063V44.268H50.1659C50.1659 44.268 59.8892 45.375 59.8892 29.9828C59.8892 14.5908 51.4024 15.1367 51.4024 15.1367H46.3376V22.279C46.3376 22.279 46.6106 30.799 37.9863 30.799H23.6046C23.6046 30.799 15.5245 30.668 15.5245 38.639V51.8186C15.5245 51.8186 14.2976 59.7943 30.1772 59.7943H30.1774ZM38.1729 55.1858C37.8303 55.1862 37.4909 55.1186 37.1743 54.9871C36.8576 54.8556 36.57 54.6627 36.3277 54.4195C36.0854 54.1763 35.8932 53.8874 35.7623 53.5696C35.6313 53.2517 35.564 52.911 35.5643 52.567C35.564 52.223 35.6312 51.8823 35.7622 51.5644C35.8932 51.2465 36.0853 50.9577 36.3276 50.7144C36.5699 50.4711 36.8576 50.2782 37.1742 50.1467C37.4909 50.0152 37.8302 49.9477 38.1729 49.948C38.5156 49.9477 38.8549 50.0152 39.1715 50.1467C39.4882 50.2782 39.7759 50.4711 40.0181 50.7143C40.2604 50.9576 40.4526 51.2464 40.5836 51.5642C40.7145 51.8821 40.7818 52.2228 40.7815 52.5668C40.7818 52.9108 40.7145 53.2515 40.5836 53.5693C40.4526 53.8872 40.2604 54.176 40.0181 54.4193C39.7759 54.6625 39.4882 54.8554 39.1715 54.9869C38.8549 55.1184 38.5156 55.1859 38.1729 55.1856V55.1858Z" fill="url(#paint1_linear)"/>
<defs>
<linearGradient id="paint0_linear" x1="5.786" y1="5.39371" x2="35.5633" y2="34.7588" gradientUnits="userSpaceOnUse">
<stop stop-color="#387EB8"/>
<stop offset="1" stop-color="#366994"/>
</linearGradient>
<linearGradient id="paint1_linear" x1="23.9928" y1="24.3249" x2="55.9645" y2="54.4306" gradientUnits="userSpaceOnUse">
<stop stop-color="#FFE052"/>
<stop offset="1" stop-color="#FFC331"/>
</linearGradient>
</defs>
</svg>
