<svg width="60" height="60" viewBox="0 0 60 60" fill="none" xmlns="http://www.w3.org/2000/svg">
<path d="M30.4371 35.8275C29.2102 36.3015 27.866 36.9193 25.175 38.1612C24.1547 38.6438 23.0885 39.1264 22.0963 39.5812C22.0275 39.5233 21.956 39.4503 21.8872 39.3903C16.5639 34.607 6.71815 31.2287 7.13647 24.8045C7.29206 22.4644 8.24857 16.3212 26.0448 8.86105C40.6909 2.79081 52.3451 4.47246 54.3576 8.20254C57.2501 13.5199 48.1109 23.4146 32.9853 24.8496C31.3112 25.1351 29.5823 25.1006 27.9262 24.7487C26.2701 24.3967 24.7293 23.7363 23.4176 22.8162C22.6167 22.0847 22.4968 22.0418 22.2009 22.1877C21.7137 22.4022 22.0275 23.065 22.2009 23.4446C22.7779 24.3231 23.5584 25.0954 24.4964 25.7158C25.4344 26.3362 26.5108 26.7922 27.6619 27.0567C33.6143 28.1387 39.8203 27.6217 45.4046 25.5789C54.5718 22.5952 61.7291 14.3007 59.6324 7.3467C57.5281 0.296217 43.6115 -2.02892 30.4448 1.90494C22.199 4.24164 14.5808 7.92007 8.02411 12.7306C0.76992 18.4362 -0.377893 23.3953 0.0914356 25.4716C1.78 32.8439 13.8652 37.6421 18.7115 41.1963C18.4565 41.3143 18.2422 41.4108 18.0509 41.5031C15.6328 42.5133 6.41462 46.5652 4.11644 50.8508C1.50707 55.707 4.53475 59.1883 6.5345 59.6559C9.54812 60.2629 12.7119 60.0633 15.5842 59.0851C18.4564 58.1068 20.8936 56.3986 22.5554 54.1991C23.9667 52.3752 24.8333 50.2916 25.0815 48.1256C25.3298 45.9597 24.9523 43.7753 23.9813 41.7583C24.5542 41.374 25.1652 41.0317 25.8076 40.7352C27.0421 40.1217 28.218 39.5168 29.2612 39.0492C32.8332 37.6423 36.7313 36.9178 40.6756 36.9279C48.9552 37.7472 50.5902 42.0908 50.2764 43.9204C50.1297 44.5696 49.8193 45.1848 49.3661 45.7246C48.9129 46.2644 48.3275 46.7163 47.6492 47.0499C47.0753 47.3567 46.884 47.4596 46.935 47.6784C47.0039 48.0001 47.2819 47.9851 47.7691 47.9272C49.0131 47.5966 50.109 46.9573 50.9129 46.0933C51.7169 45.2292 52.1912 44.1809 52.2736 43.086C52.5287 38.7961 47.6645 34.0901 39.0534 34.133C36.4749 34.1367 33.9222 34.5644 31.539 35.3921C31.1564 35.5251 30.7849 35.668 30.4244 35.8211L30.4371 35.8275ZM18.13 52.6418C15.3803 55.1579 11.5543 56.1081 9.90142 55.3037C8.11594 54.4458 8.82248 50.7242 12.1971 48.0623C14.1957 46.548 16.3559 45.1917 18.6503 44.0105C19.0508 43.796 19.6425 43.5129 20.3542 43.1525L20.5455 43.0646L20.9638 42.8501C21.5657 44.547 21.6204 46.3479 21.1225 48.0684C20.6245 49.789 19.5918 51.3673 18.13 52.6418V52.6418Z" fill="#CD6799"/>
</svg>
