<svg width="60" height="34" viewBox="0 0 60 34" fill="none" xmlns="http://www.w3.org/2000/svg">
<path d="M0 7.5172C0 5.52351 0.790176 3.61148 2.1967 2.20174C3.60322 0.791988 5.51088 0 7.5 0H52.5C54.4891 0 56.3968 0.791988 57.8033 2.20174C59.2098 3.61148 60 5.52351 60 7.5172V26.3102C60 28.3039 59.2098 30.2159 57.8033 31.6257C56.3968 33.0354 54.4891 33.8274 52.5 33.8274H7.5C5.51088 33.8274 3.60322 33.0354 2.1967 31.6257C0.790176 30.2159 0 28.3039 0 26.3102V7.5172ZM48.75 8.45685V10.3361C48.75 10.8548 49.17 11.2758 49.6875 11.2758H51.5625C51.8111 11.2758 52.0496 11.1768 52.2254 11.0006C52.4012 10.8244 52.5 10.5854 52.5 10.3361V8.45685C52.5 8.20764 52.4012 7.96863 52.2254 7.79242C52.0496 7.6162 51.8111 7.5172 51.5625 7.5172H49.6875C49.4389 7.5172 49.2004 7.6162 49.0246 7.79242C48.8488 7.96863 48.75 8.20764 48.75 8.45685ZM8.4375 15.0344C8.18886 15.0344 7.9504 15.1334 7.77459 15.3096C7.59877 15.4858 7.5 15.7248 7.5 15.974V17.8533C7.5 18.372 7.92 18.793 8.4375 18.793H10.3125C10.5611 18.793 10.7996 18.694 10.9754 18.5178C11.1512 18.3416 11.25 18.1026 11.25 17.8533V15.974C11.25 15.7248 11.1512 15.4858 10.9754 15.3096C10.7996 15.1334 10.5611 15.0344 10.3125 15.0344H8.4375ZM15 15.974V17.8533C15 18.372 15.42 18.793 15.9375 18.793H17.8125C18.0611 18.793 18.2996 18.694 18.4754 18.5178C18.6512 18.3416 18.75 18.1026 18.75 17.8533V15.974C18.75 15.7248 18.6512 15.4858 18.4754 15.3096C18.2996 15.1334 18.0611 15.0344 17.8125 15.0344H15.9375C15.6889 15.0344 15.4504 15.1334 15.2746 15.3096C15.0988 15.4858 15 15.7248 15 15.974ZM23.4375 15.0344C23.1889 15.0344 22.9504 15.1334 22.7746 15.3096C22.5988 15.4858 22.5 15.7248 22.5 15.974V17.8533C22.5 18.372 22.92 18.793 23.4375 18.793H25.3125C25.5611 18.793 25.7996 18.694 25.9754 18.5178C26.1512 18.3416 26.25 18.1026 26.25 17.8533V15.974C26.25 15.7248 26.1512 15.4858 25.9754 15.3096C25.7996 15.1334 25.5611 15.0344 25.3125 15.0344H23.4375ZM30 15.974V17.8533C30 18.372 30.42 18.793 30.9375 18.793H32.8125C33.0611 18.793 33.2996 18.694 33.4754 18.5178C33.6512 18.3416 33.75 18.1026 33.75 17.8533V15.974C33.75 15.7248 33.6512 15.4858 33.4754 15.3096C33.2996 15.1334 33.0611 15.0344 32.8125 15.0344H30.9375C30.6889 15.0344 30.4504 15.1334 30.2746 15.3096C30.0988 15.4858 30 15.7248 30 15.974ZM49.6875 15.0344C49.4389 15.0344 49.2004 15.1334 49.0246 15.3096C48.8488 15.4858 48.75 15.7248 48.75 15.974V17.8533C48.75 18.372 49.17 18.793 49.6875 18.793H51.5625C51.8111 18.793 52.0496 18.694 52.2254 18.5178C52.4012 18.3416 52.5 18.1026 52.5 17.8533V15.974C52.5 15.7248 52.4012 15.4858 52.2254 15.3096C52.0496 15.1334 51.8111 15.0344 51.5625 15.0344H49.6875ZM49.6875 22.5516C49.4389 22.5516 49.2004 22.6506 49.0246 22.8268C48.8488 23.003 48.75 23.242 48.75 23.4912V25.3705C48.75 25.8892 49.17 26.3102 49.6875 26.3102H51.5625C51.8111 26.3102 52.0496 26.2112 52.2254 26.035C52.4012 25.8588 52.5 25.6198 52.5 25.3705V23.4912C52.5 23.242 52.4012 23.003 52.2254 22.8268C52.0496 22.6506 51.8111 22.5516 51.5625 22.5516H49.6875ZM38.4375 15.0344C38.1889 15.0344 37.9504 15.1334 37.7746 15.3096C37.5988 15.4858 37.5 15.7248 37.5 15.974V17.8533C37.5 18.372 37.92 18.793 38.4375 18.793H44.0625C44.3111 18.793 44.5496 18.694 44.7254 18.5178C44.9012 18.3416 45 18.1026 45 17.8533V15.974C45 15.7248 44.9012 15.4858 44.7254 15.3096C44.5496 15.1334 44.3111 15.0344 44.0625 15.0344H38.4375ZM41.25 23.4912V25.3705C41.25 25.8892 41.67 26.3102 42.1875 26.3102H44.0625C44.3111 26.3102 44.5496 26.2112 44.7254 26.035C44.9012 25.8588 45 25.6198 45 25.3705V23.4912C45 23.242 44.9012 23.003 44.7254 22.8268C44.5496 22.6506 44.3111 22.5516 44.0625 22.5516H42.1875C41.9389 22.5516 41.7004 22.6506 41.5246 22.8268C41.3488 23.003 41.25 23.242 41.25 23.4912ZM42.1875 7.5172C41.9389 7.5172 41.7004 7.6162 41.5246 7.79242C41.3488 7.96863 41.25 8.20764 41.25 8.45685V10.3361C41.25 10.8548 41.67 11.2758 42.1875 11.2758H44.0625C44.3111 11.2758 44.5496 11.1768 44.7254 11.0006C44.9012 10.8244 45 10.5854 45 10.3361V8.45685C45 8.20764 44.9012 7.96863 44.7254 7.79242C44.5496 7.6162 44.3111 7.5172 44.0625 7.5172H42.1875ZM33.75 8.45685V10.3361C33.75 10.8548 34.17 11.2758 34.6875 11.2758H36.5625C36.8111 11.2758 37.0496 11.1768 37.2254 11.0006C37.4012 10.8244 37.5 10.5854 37.5 10.3361V8.45685C37.5 8.20764 37.4012 7.96863 37.2254 7.79242C37.0496 7.6162 36.8111 7.5172 36.5625 7.5172H34.6875C34.4389 7.5172 34.2004 7.6162 34.0246 7.79242C33.8488 7.96863 33.75 8.20764 33.75 8.45685ZM27.1875 7.5172C26.9389 7.5172 26.7004 7.6162 26.5246 7.79242C26.3488 7.96863 26.25 8.20764 26.25 8.45685V10.3361C26.25 10.8548 26.67 11.2758 27.1875 11.2758H29.0625C29.3111 11.2758 29.5496 11.1768 29.7254 11.0006C29.9012 10.8244 30 10.5854 30 10.3361V8.45685C30 8.20764 29.9012 7.96863 29.7254 7.79242C29.5496 7.6162 29.3111 7.5172 29.0625 7.5172H27.1875ZM18.75 8.45685V10.3361C18.75 10.8548 19.17 11.2758 19.6875 11.2758H21.5625C21.8111 11.2758 22.0496 11.1768 22.2254 11.0006C22.4012 10.8244 22.5 10.5854 22.5 10.3361V8.45685C22.5 8.20764 22.4012 7.96863 22.2254 7.79242C22.0496 7.6162 21.8111 7.5172 21.5625 7.5172H19.6875C19.4389 7.5172 19.2004 7.6162 19.0246 7.79242C18.8488 7.96863 18.75 8.20764 18.75 8.45685ZM8.4375 7.5172C8.18886 7.5172 7.9504 7.6162 7.77459 7.79242C7.59877 7.96863 7.5 8.20764 7.5 8.45685V10.3361C7.5 10.8548 7.92 11.2758 8.4375 11.2758H14.0625C14.3111 11.2758 14.5496 11.1768 14.7254 11.0006C14.9012 10.8244 15 10.5854 15 10.3361V8.45685C15 8.20764 14.9012 7.96863 14.7254 7.79242C14.5496 7.6162 14.3111 7.5172 14.0625 7.5172H8.4375ZM7.5 23.4912V25.3705C7.5 25.8892 7.92 26.3102 8.4375 26.3102H10.3125C10.5611 26.3102 10.7996 26.2112 10.9754 26.035C11.1512 25.8588 11.25 25.6198 11.25 25.3705V23.4912C11.25 23.242 11.1512 23.003 10.9754 22.8268C10.7996 22.6506 10.5611 22.5516 10.3125 22.5516H8.4375C8.18886 22.5516 7.9504 22.6506 7.77459 22.8268C7.59877 23.003 7.5 23.242 7.5 23.4912ZM15.9375 22.5516C15.6889 22.5516 15.4504 22.6506 15.2746 22.8268C15.0988 23.003 15 23.242 15 23.4912V25.3705C15 25.8892 15.42 26.3102 15.9375 26.3102H36.5625C36.8111 26.3102 37.0496 26.2112 37.2254 26.035C37.4012 25.8588 37.5 25.6198 37.5 25.3705V23.4912C37.5 23.242 37.4012 23.003 37.2254 22.8268C37.0496 22.6506 36.8111 22.5516 36.5625 22.5516H15.9375Z" fill="#0FA958"/>
</svg>
