<svg width="60" height="60" viewBox="0 0 60 60" fill="none" xmlns="http://www.w3.org/2000/svg">
<path d="M30 0C13.4575 0 0 13.4575 0 30C0 46.5425 13.4575 60 30 60C46.5425 60 60 46.5425 60 30C60 13.4575 46.5425 0 30 0ZM30 1.4075C45.7825 1.4075 58.595 14.22 58.595 30C58.595 45.7825 45.7825 58.595 30 58.595C14.2175 58.595 1.405 45.7825 1.405 30C1.4075 14.2175 14.22 1.405 30 1.405V1.4075ZM30 4.2975C25.7398 4.28652 21.5442 5.33807 17.7927 7.35696C14.0413 9.37586 10.8525 12.2984 8.515 15.86C9.12 15.88 9.6675 15.86 10.1575 15.86C12.8525 15.86 17.0325 15.5475 17.0325 15.5475C18.4175 15.47 18.575 17.49 17.1875 17.6575C17.1875 17.6575 15.7725 17.89 14.2175 17.9675L23.5925 45.7825L29.2175 28.9075L25.235 17.9675C23.8475 17.8925 22.5 17.6575 22.5 17.6575C21.1125 17.5775 21.27 15.4675 22.6575 15.5475C22.6575 15.5475 26.925 15.86 29.4525 15.86C32.1475 15.86 36.3275 15.5475 36.3275 15.5475C37.715 15.47 37.87 17.49 36.485 17.6575C36.485 17.6575 35.06 17.89 33.515 17.9675L42.8125 45.625L45.39 37.03C46.69 33.6925 47.345 30.88 47.345 28.6725C47.345 25.4875 46.22 23.3475 45.235 21.64C43.935 19.5225 42.735 17.665 42.735 15.5475C42.735 13.1825 44.5025 11.015 47.03 11.015H47.3425C42.6128 6.67376 36.4199 4.27588 30 4.3V4.2975ZM52.5775 17.655C52.695 18.4775 52.735 19.365 52.735 20.3125C52.735 22.92 52.245 25.86 50.78 29.5325L42.9675 52.265C46.855 49.9948 50.0778 46.7432 52.3133 42.8356C54.5488 38.9281 55.7184 34.5018 55.705 30C55.705 25.525 54.5925 21.3175 52.58 17.655H52.5775ZM6.485 19.53C5.02675 22.827 4.28131 26.3949 4.2975 30C4.2975 40.185 10.165 48.955 18.75 53.125L6.485 19.53ZM30.4675 32.265L22.735 54.6875C25.04 55.3625 27.47 55.7025 30 55.7025C33 55.7025 35.84 55.235 38.515 54.2975C38.4475 54.19 38.4075 54.0325 38.36 53.905L30.4675 32.265Z" fill="#5D5FEF"/>
</svg>
