<svg width="60" height="60" viewBox="0 0 60 60" fill="none" xmlns="http://www.w3.org/2000/svg">
<path d="M0 0V60H60V0H0ZM25.4927 43.0696L19.9453 31.6371L14.593 43.0423H9.37652L17.0532 28.4175L9.63094 13.6289H15.0452L20.3002 24.8704L25.511 13.6016H30.5934L23.165 27.9536L31.0321 43.0696H25.4926H25.4927ZM49.277 41.869C46.985 42.9605 44.5839 43.4516 42.2919 43.4516C36.3711 43.4789 32.142 39.8227 32.142 32.4011C32.3346 24.7984 37.4004 20.5561 44.5021 21.1323V13.6289H49.3588V38.895C49.3689 41.9082 49.7014 41.6184 49.277 41.869V41.869ZM44.502 25.4161V38.9222C39.7082 40.1661 37.0576 37.2488 37.0805 32.1827C37.0985 26.9873 40.512 24.291 44.502 25.4161Z" fill="#FF00D6"/>
</svg>
