<svg width="30" height="30" viewBox="0 0 30 30" fill="none" xmlns="http://www.w3.org/2000/svg">
<path d="M27.994 5.80557C29.3323 7.29462 30 9.03185 30 11.0172C30 18.213 25.5851 20.3224 21.4365 20.9429C21.9718 21.8115 22.1056 22.8042 22.1056 23.7969V28.8831C22.1056 29.5036 21.7041 29.8758 21.1688 29.8758C21.0277 29.8777 20.8875 29.8532 20.7568 29.804C20.626 29.7548 20.5072 29.6817 20.4073 29.5892C20.3075 29.4966 20.2287 29.3864 20.1756 29.2652C20.1225 29.1439 20.0962 29.014 20.0982 28.8831V23.7969C20.1687 23.2769 20.1087 22.7488 19.923 22.2537C19.7373 21.7587 19.4309 21.3101 19.0275 20.9429L19.6967 19.3297C23.8454 18.8334 28.1279 17.5925 28.1279 10.8932C28.1279 9.28002 27.4587 7.79097 26.2543 6.55009L25.9866 5.55876C26.4955 4.36977 26.5423 3.05362 26.119 1.83613C25.4513 1.95886 24.113 2.2084 21.8394 3.69745L21.035 3.82017C17.8742 3.07601 14.563 3.07601 11.4023 3.82017L10.5978 3.69745C8.19186 2.33248 6.85358 1.96022 6.18297 1.96022C5.78148 3.2011 5.78148 4.56469 6.31532 5.68285L6.04914 6.67418C4.71085 7.91506 4.04171 9.5282 4.04171 11.0172C4.04171 17.5925 8.05656 18.9575 12.4714 19.4538L13.0067 21.067C12.2038 21.8115 11.8023 22.8042 11.9361 23.7969V29.0072C11.9381 29.1381 11.9118 29.268 11.8587 29.3893C11.8055 29.5105 11.7268 29.6207 11.6269 29.7132C11.5271 29.8058 11.4083 29.8788 11.2775 29.9281C11.1467 29.9773 11.0066 30.0017 10.8655 29.9999C10.7243 30.0017 10.5842 29.9773 10.4534 29.9281C10.3227 29.8788 10.2038 29.8058 10.104 29.7132C10.0042 29.6207 9.92543 29.5105 9.87232 29.3893C9.81922 29.268 9.79288 29.1381 9.79486 29.0072V26.1546C5.38 27.0232 3.64023 24.9137 2.30194 23.3019C1.6328 22.5574 1.09749 21.9369 0.428346 21.8129C0.295989 21.6888 -0.106967 21.1924 0.0268612 20.6961C0.16069 20.1997 0.696003 19.8275 1.23279 20.0756C2.57107 20.3238 3.37257 21.3165 4.17407 22.1851C5.38 23.6742 6.58445 25.0378 10.1963 24.2946V23.7983C10.064 22.8056 10.3302 21.8129 10.8655 20.9442C6.85064 20.1997 2.16812 18.0902 2.16812 11.0186C2.16812 9.03321 2.83726 7.29598 4.17554 5.80693C3.77406 4.07107 3.90788 2.20976 4.57703 0.720709L5.24617 0.224359C5.51382 0.100272 7.38742 -0.271991 11.2655 1.96022C14.472 1.2158 17.827 1.2158 21.0335 1.96022C24.7822 -0.397442 26.7896 -0.026543 27.0572 0.0989081L27.7264 0.595258C28.3955 2.33248 28.5294 4.06971 27.994 5.80557Z" fill="#00B312"/>
</svg>
