<svg width="30" height="30" viewBox="0 0 30 30" fill="none" xmlns="http://www.w3.org/2000/svg">
<path d="M6.71595 30H0.496089V9.97071H6.71595V30ZM3.60227 7.23857C1.61363 7.23857 0 5.59071 0 3.60214C0 2.6468 0.379524 1.73058 1.05508 1.05504C1.73064 0.37951 2.64689 0 3.60227 0C4.55765 0 5.47391 0.37951 6.14946 1.05504C6.82502 1.73058 7.20454 2.6468 7.20454 3.60214C7.20454 5.59071 5.59091 7.23857 3.60227 7.23857ZM29.9946 30H23.7887V20.25C23.7887 17.9261 23.7416 14.9464 20.555 14.9464C17.3213 14.9464 16.8252 17.4707 16.8252 20.0829V30H10.6118V9.97071H16.5767V12.7029H16.6635C17.4938 11.1289 19.5221 9.46821 22.5479 9.46821C28.8428 9.46821 30 13.6136 30 18.9975V30H29.9946Z" fill="#097ED3"/>
</svg>
