<svg width="32" height="32" viewBox="0 0 32 32" fill="none" xmlns="http://www.w3.org/2000/svg">
<path d="M31 1.01681C31 1.01681 28.2482 3.00971 26.7182 3.57482C25.8969 2.41704 24.8055 1.59645 23.5914 1.224C22.3774 0.851562 21.0993 0.945248 19.9301 1.49239C18.7609 2.03953 17.757 3.01373 17.0541 4.28323C16.3512 5.55272 15.9832 7.05627 16 8.59051V10.2624C13.6036 10.3386 11.229 9.68696 9.08774 8.36555C6.94647 7.04414 5.10498 5.09396 3.72727 2.68871C3.72727 2.68871 -1.72727 17.7358 10.5455 24.4234C7.73708 26.7606 4.39158 27.9326 1 27.7672C13.2727 36.1267 28.2727 27.7672 28.2727 8.54035C28.2727 8.07556 28.2345 7.61078 28.1636 7.15268C29.5545 5.47075 31 1.01681 31 1.01681Z" stroke="#3FE3D0" stroke-width="1.5" stroke-linecap="round" stroke-linejoin="round"/>
</svg>
